<?xml version="1.0" encoding="UTF-8"?>
<svg version="1.1" xmlns="http://www.w3.org/2000/svg" width="441" height="469">
<path d="M0 0 C3.66425268 2.44283512 3.9794058 3.97505561 5.4375 8.0625 C6.79686586 11.83552537 8.21307642 15.53778362 9.86230469 19.19189453 C11.84453692 23.62554088 13.73040513 28.09254271 15.58203125 32.58203125 C15.91318939 33.38212616 16.24434753 34.18222107 16.58554077 35.00656128 C17.29452944 36.71977711 18.00301322 38.43320197 18.71102905 40.14682007 C20.59908382 44.71611871 22.49128891 49.28369901 24.3828125 53.8515625 C24.76755234 54.78097153 25.15229218 55.71038055 25.5486908 56.66795349 C29.1017199 65.24974478 32.66477346 73.82733874 36.23568726 82.40170288 C36.85970594 83.90029608 37.48343453 85.39901012 38.10684204 86.89785767 C41.11428001 94.12824876 44.13891555 101.34976065 47.234375 108.54296875 C49.24286311 113.21417239 51.19762238 117.89484393 53.0625 122.625 C56.6114206 131.61559884 60.37408162 140.5163057 64.12109375 149.42578125 C64.39127823 150.06839905 64.66146271 150.71101685 64.93983459 151.37310791 C65.34956764 152.34760895 65.34956764 152.34760895 65.76757812 153.34179688 C66.04287354 153.99656006 66.31816895 154.65132324 66.60180664 155.32592773 C67.15674664 156.64510588 67.71208208 157.96411774 68.26782227 159.28295898 C71.27787025 166.42771753 74.24600541 173.58336723 77.09765625 180.79296875 C78.76974412 185.01604945 80.50508245 189.19174227 82.41796875 193.3125 C85.64680293 200.28791521 88.46608054 207.42820856 91.33105469 214.55853271 C92.99184848 218.68996384 94.66215563 222.81754561 96.33203125 226.9453125 C96.65555573 227.74534698 96.9790802 228.54538147 97.31240845 229.36965942 C100.78538401 237.95185292 104.30180119 246.51208257 108 255 C108.28214355 255.65468262 108.56428711 256.30936523 108.85498047 256.98388672 C115.6974346 272.74756441 123.61030408 287.32580775 139 296 C138.125 300.875 138.125 300.875 137 302 C135.16097906 302.12865946 133.31710257 302.18847148 131.47387695 302.22119141 C130.29207352 302.24436432 129.11027008 302.26753723 127.89265442 302.29141235 C125.9599897 302.32118668 125.9599897 302.32118668 123.98828125 302.3515625 C122.01410469 302.38629166 122.01410469 302.38629166 120.00004578 302.42172241 C117.20653501 302.47026143 114.41299448 302.51516727 111.61938477 302.55761719 C108.04946096 302.61219017 104.47977682 302.67607532 100.91006184 302.74279213 C98.16051686 302.79306339 95.41090462 302.83810735 92.66124535 302.88163376 C90.70813747 302.91353402 88.75510536 302.94996921 86.80207825 302.98648071 C85.60451401 303.0033493 84.40694977 303.0202179 83.1730957 303.03759766 C82.12354202 303.05456696 81.07398834 303.07153625 79.99263 303.08901978 C76.91235907 302.997393 74.02419709 302.57570299 71 302 C71.125 298.75 71.125 298.75 72 295 C73.98075027 293.63823419 75.98079663 292.30406884 78 291 C79.96591505 284.1046263 77.2921252 278.51519224 75 272 C74.57460938 270.79085938 74.14921875 269.58171875 73.7109375 268.3359375 C70.70046319 259.99219183 67.27117126 251.84380018 63.74609375 243.70654297 C60.35811435 235.87744984 57.07207559 228.00812788 53.8125 220.125 C53.32571777 218.94977783 52.83893555 217.77455566 52.33740234 216.5637207 C48.82771243 208.06623289 45.41497234 199.53743086 42 191 C29.46 190.67 16.92 190.34 4 190 C3.67 191.65 3.34 193.3 3 195 C0.18144985 200.70968099 -4.20627115 204.49460374 -10 207 C-21.03093203 210.48345222 -33.57153251 209.18882826 -45 209 C-44.63213379 209.48903809 -44.26426758 209.97807617 -43.88525391 210.48193359 C-41.31224165 213.90688241 -38.74704953 217.33667773 -36.2109375 220.7890625 C-30.35418528 228.72990044 -24.25723663 236.34631746 -17.78125 243.7890625 C-15.2187863 246.73448393 -12.71435825 249.72161609 -10.25 252.75 C-9.61578125 253.52859375 -8.9815625 254.3071875 -8.328125 255.109375 C-7 257 -7 257 -7 259 C-9 259.875 -9 259.875 -12 260 C-16.09096106 257.70844662 -19.49155913 255.52532262 -21 251 C-21.99 250.67 -22.98 250.34 -24 250 C-25.35827971 248.35360035 -26.69254251 246.68704193 -28 245 C-28.66 244.67 -29.32 244.34 -30 244 C-30 243.34 -30 242.68 -30 242 C-30.66 241.814375 -31.32 241.62875 -32 241.4375 C-35.58657441 239.7189331 -38.0072974 237.41517024 -40.9296875 234.75390625 C-43.76218654 232.35429857 -46.71391233 230.71150399 -50 229 C-50 228.34 -50 227.68 -50 227 C-50.5775 226.71125 -51.155 226.4225 -51.75 226.125 C-54.875 224.5625 -54.875 224.5625 -58 223 C-58 222.34 -58 221.68 -58 221 C-59.0209375 220.62875 -59.0209375 220.62875 -60.0625 220.25 C-63.56865083 218.75802092 -66.71620368 216.93164489 -70 215 C-70 214.34 -70 213.68 -70 213 C-70.68449219 212.74992188 -71.36898437 212.49984375 -72.07421875 212.2421875 C-75.48754561 210.79300467 -78.63945894 209.02811715 -81.8125 207.125 C-82.40998047 206.78597656 -83.00746094 206.44695312 -83.62304688 206.09765625 C-85.33203125 205.0703125 -85.33203125 205.0703125 -88 203 C-88 201.68 -88 200.36 -88 199 C-79.12871527 194.56435764 -65.99757268 199.61201862 -57 202 C-67.97701701 187.06751473 -67.97701701 187.06751473 -80.625 173.625 C-83.08018914 170.9113699 -83.69351008 169.57571576 -84 166 C-79.33118172 166.45129175 -77.57054194 168.05043678 -74.5625 171.5625 C-73.48162109 172.80193359 -73.48162109 172.80193359 -72.37890625 174.06640625 C-68.33670701 179.05112157 -64.55829043 184.21730848 -60.81640625 189.4296875 C-59.73222624 190.91179158 -58.64758892 192.39356123 -57.5625 193.875 C-56.76102539 195.01195312 -56.76102539 195.01195312 -55.94335938 196.171875 C-52.42346047 200.92141446 -50.08606463 203.07195921 -44 204 C-31.51825608 205.72353702 -18.09053594 205.73767424 -7 199 C-3.55090328 196.06459854 -2.04288735 194.08577469 0 190 C-8.91 190 -17.82 190 -27 190 C-26.67 187.69 -26.34 185.38 -26 183 C-22.61363691 182.25484101 -19.38056897 181.83229437 -15.91796875 181.68359375 C-14.52094727 181.62075195 -14.52094727 181.62075195 -13.09570312 181.55664062 C-12.13599609 181.51732422 -11.17628906 181.47800781 -10.1875 181.4375 C-9.20845703 181.39431641 -8.22941406 181.35113281 -7.22070312 181.30664062 C-4.81392973 181.2009774 -2.40706017 181.09887673 0 181 C-0.33 179.02 -0.66 177.04 -1 175 C0.9375 175.75 0.9375 175.75 3 177 C3.62890625 179.078125 3.62890625 179.078125 4 181 C4.95890137 181.02505615 5.91780273 181.0501123 6.90576172 181.07592773 C10.45798477 181.1699862 14.01001156 181.27021058 17.56201172 181.37231445 C19.10037653 181.41566926 20.63878963 181.45734395 22.17724609 181.49731445 C24.3865414 181.55500398 26.59559348 181.61870179 28.8046875 181.68359375 C29.49432587 181.70030624 30.18396423 181.71701874 30.89450073 181.73423767 C35.77225659 181.88612829 35.77225659 181.88612829 38 183 C37.69707031 182.21238281 37.39414063 181.42476562 37.08203125 180.61328125 C36.66308594 179.52402344 36.24414062 178.43476563 35.8125 177.3125 C35.35488281 176.12527344 34.89726562 174.93804687 34.42578125 173.71484375 C33.52027489 171.35556552 32.62108852 168.99384429 31.73046875 166.62890625 C31.32441406 165.55511719 30.91835937 164.48132813 30.5 163.375 C30.1390625 162.41335937 29.778125 161.45171875 29.40625 160.4609375 C28.22628574 157.55691434 26.96859345 154.72793208 25.65625 151.8828125 C22.41107992 144.80233216 19.59575222 137.56418144 16.75 130.31640625 C14.77437276 125.32177362 12.75067109 120.37762626 10.5 115.5 C7.2946807 108.55347207 4.54513296 101.4352605 1.75 94.31640625 C-0.60898645 88.35259362 -3.11145398 82.49679197 -5.79931641 76.67431641 C-8.1452092 71.44924327 -10.16439056 66.09064821 -12.22460938 60.74804688 C-12.55654297 59.90177734 -12.88847656 59.05550781 -13.23046875 58.18359375 C-13.66975708 57.04748657 -13.66975708 57.04748657 -14.11791992 55.88842773 C-14.95386646 53.81852653 -14.95386646 53.81852653 -17 52 C-17.625 49.875 -17.625 49.875 -18 48 C-21.90257334 55.36528829 -24.89620217 63.06472506 -27.9375 70.8125 C-29.93155573 75.88617365 -31.95149972 80.94804135 -34 86 C-34.43675049 87.10819092 -34.87350098 88.21638184 -35.32348633 89.3581543 C-35.73751709 90.35371338 -36.15154785 91.34927246 -36.578125 92.375 C-36.93165039 93.24511719 -37.28517578 94.11523438 -37.64941406 95.01171875 C-39 97 -39 97 -41.29589844 97.89453125 C-43.60311496 98.16312456 -45.69093401 98.21631773 -48 98 C-45.68609199 90.70168057 -42.91354698 83.62080644 -40.04333496 76.52703857 C-39.23679158 74.52979193 -38.43640433 72.53017667 -37.63769531 70.52978516 C-35.35569882 64.81934948 -33.06450884 59.11579904 -30.65625 53.45703125 C-27.29159113 45.45857339 -24.08798476 37.81580179 -26 29 C-27.15969971 26.26064287 -28.42894064 23.77641215 -30.00390625 21.25390625 C-31 19 -31 19 -31.171875 16.4609375 C-29.26020619 12.446433 -25.67634985 11.63272408 -21.6875 10.0625 C-20.04722188 9.37858853 -18.40790031 8.69237848 -16.76953125 8.00390625 C-15.96080566 7.66891113 -15.15208008 7.33391602 -14.31884766 6.98876953 C-9.42774203 4.9031749 -4.72029456 2.4434466 0 0 Z M-79 202 C-77.49153553 206.55703953 -73.75622644 208.50453192 -69.9375 211 C-68.48236342 211.975505 -67.02796062 212.95210526 -65.57421875 213.9296875 C-64.82060059 214.43338867 -64.06698242 214.93708984 -63.29052734 215.45605469 C-59.57417628 217.96108604 -55.90986614 220.53839623 -52.25 223.125 C-51.18458984 223.87740967 -51.18458984 223.87740967 -50.09765625 224.64501953 C-43.97798033 228.98403975 -37.97243898 233.46023004 -32 238 C-30.41755308 239.18868097 -28.83432817 240.3763276 -27.25 241.5625 C-26.16666667 242.375 -25.08333333 243.1875 -24 244 C-25.42731993 241.07153324 -26.86928912 238.48582937 -29 236 C-29.66 236 -30.32 236 -31 236 C-31.495 234.02 -31.495 234.02 -32 232 C-32.66 232 -33.32 232 -34 232 C-34.22042969 231.30648437 -34.44085938 230.61296875 -34.66796875 229.8984375 C-36.32805605 226.28616542 -38.69880608 223.56844282 -41.3125 220.625 C-42.26969034 219.53627738 -43.22412262 218.44512372 -44.17578125 217.3515625 C-44.89954956 216.53619019 -44.89954956 216.53619019 -45.63793945 215.7043457 C-47 214 -47 214 -48.02416992 212.12963867 C-49.83975811 208.87711895 -51.14837505 207.32165829 -54.7019043 205.97949219 C-58.01984985 205.19101912 -61.31889164 204.59318421 -64.6875 204.0625 C-66.41709961 203.7521582 -66.41709961 203.7521582 -68.18164062 203.43554688 C-73.55886198 202.40107913 -73.55886198 202.40107913 -79 202 Z " fill="#FEFCFE" transform="translate(213,50)"/>
<path d="M0 0 C8.03838914 3.40348817 13.71053385 8.03121386 20 14 C21.37044637 15.15127572 22.7451525 16.29750881 24.125 17.4375 C28.68843804 21.40489715 32.57646391 26.01948341 36 31 C36 31.66 36 32.32 36 33 C38.82998698 34.43110959 41.67793954 35.8071805 44.5625 37.125 C45.32691406 37.47820312 46.09132812 37.83140625 46.87890625 38.1953125 C49.08938838 39.17735307 49.08938838 39.17735307 52 39 C51.505 35.535 51.505 35.535 51 32 C50.24074219 31.76023437 49.48148438 31.52046875 48.69921875 31.2734375 C45.56785639 29.79612328 44.61620516 28.53607375 42.8125 25.625 C42.07966797 24.46871094 42.07966797 24.46871094 41.33203125 23.2890625 C38.53554943 18.48337819 37.78086662 15.69746797 38 10 C40.25 10.0625 40.25 10.0625 43 11 C46.65102971 16.00712646 47.9571364 20.94864672 49 27 C49.99 27 50.98 27 52 27 C51.19074658 24.85294019 50.37750887 22.7073817 49.5625 20.5625 C49.11003906 19.36753906 48.65757812 18.17257812 48.19140625 16.94140625 C47.2855174 14.15554277 47.2855174 14.15554277 46 13 C45.95936168 11.33382885 45.957279 9.66611905 46 8 C46.66 8 47.32 8 48 8 C56.54183995 22.22896577 56.54183995 22.22896577 56 31 C55.67 31.99 55.34 32.98 55 34 C55.33 34.66 55.66 35.32 56 36 C56.04022391 38.3329866 56.04320247 40.66706666 56 43 C49.375 44.125 49.375 44.125 46 43 C48.82050946 48.18493655 51.72349951 53.25351033 54.984375 58.17578125 C56.05799972 60.10417642 56.56235431 61.84507066 57 64 C54.82421875 64.7890625 54.82421875 64.7890625 52 65 C49.39453125 63.0859375 49.39453125 63.0859375 46.8125 60.375 C45.95269531 59.49585938 45.09289062 58.61671875 44.20703125 57.7109375 C40.82811162 53.56054773 39.71294291 50.31055615 40 45 C40.2 42.85 40.2 42.85 38.5 41 C37 39 37 39 37 37 C36.484375 36.773125 35.96875 36.54625 35.4375 36.3125 C32.10452995 34.51782382 28.85296329 32.50034985 26 30 C26 29.34 26 28.68 26 28 C25.45730469 27.77441406 24.91460937 27.54882812 24.35546875 27.31640625 C21.28360336 25.59962576 18.86041008 23.3311891 16.3125 20.9375 C15.78938232 20.44870361 15.26626465 19.95990723 14.72729492 19.45629883 C13.66085612 18.45583201 12.59679591 17.45282358 11.53515625 16.44726562 C10.11950552 15.1126636 8.68553603 13.79756421 7.25 12.484375 C6.445625 11.72640625 5.64125 10.9684375 4.8125 10.1875 C4.09707031 9.52105469 3.38164062 8.85460937 2.64453125 8.16796875 C0.60525985 5.4796181 0.31728937 3.31969923 0 0 Z M12 11 C12 11.66 12 12.32 12 13 C12.66 12.67 13.32 12.34 14 12 C13.34 11.67 12.68 11.34 12 11 Z M49 57 C49.66 57.66 50.32 58.32 51 59 C51 58.34 51 57.68 51 57 C50.34 57 49.68 57 49 57 Z " fill="#FDF2FA" transform="translate(130,284)"/>
<path d="M0 0 C5.20580588 0.40195488 8.05064511 3.13696511 11.8125 6.4375 C12.7087207 7.19256836 12.7087207 7.19256836 13.62304688 7.96289062 C15.12749093 9.2575722 16.56955026 10.62400369 18 12 C18 12.66 18 13.32 18 14 C18.66 14 19.32 14 20 14 C21.47516321 15.65808345 22.880713 17.37846047 24.25 19.125 C27.63649626 23.36495897 31.06669363 27.26840165 35 31 C34.979375 30.05125 34.95875 29.1025 34.9375 28.125 C35 25 35 25 36 23 C38.6796875 22.65625 38.6796875 22.65625 42 23 C44.04768837 24.82286799 45.49785696 26.35634925 47.125 28.5 C47.773479 29.31778931 47.773479 29.31778931 48.43505859 30.15209961 C56 39.9140105 56 39.9140105 56 46 C53.625 46.125 53.625 46.125 51 46 C50.34 45.34 49.68 44.68 49 44 C48.01 44.66 47.02 45.32 46 46 C46.20625 47.11375 46.4125 48.2275 46.625 49.375 C46.74875 50.57125 46.8725 51.7675 47 53 C46.34 53.66 45.68 54.32 45 55 C44.01 55 43.02 55 42 55 C42.3609375 55.66386719 42.721875 56.32773438 43.09375 57.01171875 C43.5578125 57.89472656 44.021875 58.77773437 44.5 59.6875 C44.9640625 60.55761719 45.428125 61.42773438 45.90625 62.32421875 C47.04818792 65.11788829 47.21504208 67.01629113 47 70 C44.69140625 70.21875 44.69140625 70.21875 42 70 C35.65598453 64.3874122 31.64990338 55.2862681 31 47 C31 46.01 31 45.02 31 44 C35.59306496 45.4859916 38.43569245 47.85014682 42 51 C41.60526418 45.27633055 41.05692636 41.37721002 37 37 C33.3634269 36.02649222 33.3634269 36.02649222 30 36 C29.6596875 34.948125 29.6596875 34.948125 29.3125 33.875 C27.0627372 28.94694815 23.69209713 25.51953256 19.625 22.0625 C15.23514577 18.30824243 11.11308073 14.3018713 7 10.25 C6.31631348 9.58750244 5.63262695 8.92500488 4.92822266 8.24243164 C4.29190918 7.61071045 3.6555957 6.97898926 3 6.328125 C2.4225 5.7599707 1.845 5.19181641 1.25 4.60644531 C0 3 0 3 0 0 Z M39 26 C39.47610659 30.99911924 41.03162219 33.97832683 44 38 C44.33 37.34 44.66 36.68 45 36 C44.00503992 33.52182163 44.00503992 33.52182163 42.5625 30.875 C42.08941406 29.96492188 41.61632812 29.05484375 41.12890625 28.1171875 C40.75636719 27.41851562 40.38382813 26.71984375 40 26 C39.67 26 39.34 26 39 26 Z M45 38 C46 40 46 40 46 40 Z M39 60 C39.66 61.32 40.32 62.64 41 64 C41.33 63.34 41.66 62.68 42 62 C41.67 61.34 41.34 60.68 41 60 C40.34 60 39.68 60 39 60 Z " fill="#FDF2FA" transform="translate(139,184)"/>
<path d="M0 0 C0.99 0 1.98 0 3 0 C4.18203738 2.20124308 5.34540108 4.40941829 6.5 6.625 C6.83386719 7.24246094 7.16773438 7.85992187 7.51171875 8.49609375 C9.58469428 12.51512794 10.38860447 15.48941245 10 20 C9.01 20 8.02 20 7 20 C7.515625 20.886875 8.03125 21.77375 8.5625 22.6875 C10.0868937 26.20023331 10.14947895 27.44706507 9 31 C6.69 31.66 4.38 32.32 2 33 C2.37511719 33.4125 2.75023437 33.825 3.13671875 34.25 C6.8656457 38.45795787 10.62462909 42.8592719 13 48 C12.505 48.99 12.505 48.99 12 50 C1.40063127 48.83083886 -6.76733467 39.61053538 -14.49267578 32.79785156 C-18.8964688 28.91635043 -23.41646667 25.26592071 -28.14453125 21.78125 C-30.31507515 19.69752786 -31.08157997 17.83786929 -32 15 C-27.71007444 15.51358264 -25.63121502 16.81724227 -22.5 19.75 C-21.32244141 20.84248047 -21.32244141 20.84248047 -20.12109375 21.95703125 C-17.71571882 24.27381041 -15.36147408 26.63852592 -13 29 C-7.57890323 34.06774913 -2.15828549 38.84985108 4 43 C1.4022467 38.76662426 -1.14285812 36.06593329 -5 33 C-6.8125 30.25 -6.8125 30.25 -8 28 C-7.67 27.67 -7.34 27.34 -7 27 C-2.91723674 27.40158327 1.05208447 27.84852464 5 29 C4.48547288 22.13963838 1.05601297 16.82706808 -3.8125 12.125 C-4.534375 11.42375 -5.25625 10.7225 -6 10 C-6 9.34 -6 8.68 -6 8 C-6.66 8 -7.32 8 -8 8 C-8 7.01 -8 6.02 -8 5 C-4 5 -4 5 -2.18359375 6.6796875 C-1.60738281 7.40414062 -1.03117187 8.12859375 -0.4375 8.875 C1.6768271 11.50260472 3.15146857 13.10097905 6 15 C5.566875 14.08476562 5.13375 13.16953125 4.6875 12.2265625 C4.130625 11.03804687 3.57375 9.84953125 3 8.625 C2.443125 7.44164062 1.88625 6.25828125 1.3125 5.0390625 C0 2 0 2 0 0 Z " fill="#FEF1FB" transform="translate(176,158)"/>
<path d="M0 0 C1.52519276 0.08937803 3.04681929 0.24537146 4.5625 0.4375 C5.80193359 0.59025391 5.80193359 0.59025391 7.06640625 0.74609375 C7.70449219 0.82988281 8.34257812 0.91367187 9 1 C9 1.66 9 2.32 9 3 C9.66 3 10.32 3 11 3 C15.21389931 7.92925623 17.72405803 12.51536373 18 19 C16.02 19.99 16.02 19.99 14 21 C14.31195313 21.65226562 14.62390625 22.30453125 14.9453125 22.9765625 C18.12439261 30.11370262 18.12439261 30.11370262 17.5 34.5625 C16 37 16 37 14.25 38.125 C10.70393203 37.92799622 8.51013259 36.34978014 6 34 C1.05608333 28.25312702 -0.76050888 23.54397024 -1 16 C0.32 16 1.64 16 3 16 C5.94734503 20.64430127 5.94734503 20.64430127 7 23 C6.7215625 24.0209375 6.7215625 24.0209375 6.4375 25.0625 C6.293125 25.701875 6.14875 26.34125 6 27 C8.93068547 31.13423257 8.93068547 31.13423257 13 34 C11.79900986 29.19603943 10.18531472 25.14108526 7.8046875 20.796875 C7 19 7 19 7 16 C6.34 16 5.68 16 5 16 C5 15.01 5 14.02 5 13 C4.01 12.67 3.02 12.34 2 12 C-0.29679361 8.25707708 -1.50389769 5.40910482 -1 1 C-0.67 0.67 -0.34 0.34 0 0 Z M7 5 C5.96406842 7.69815072 5.96406842 7.69815072 6 11 C7.71602887 13.34435944 9.75668093 15.1663305 12 17 C12.99 16.67 13.98 16.34 15 16 C13.80271213 12.59233453 12.71278039 10.38724674 10 8 C9 7 8 6 7 5 Z " fill="#FEF0F9" transform="translate(169,344)"/>
<path d="M0 0 C2.23413013 3.35119519 2.23847762 4.4177755 2.1953125 8.32421875 C2.18886719 9.35224609 2.18242188 10.38027344 2.17578125 11.43945312 C2.15902344 12.51130859 2.14226562 13.58316406 2.125 14.6875 C2.11597656 15.77095703 2.10695313 16.85441406 2.09765625 17.97070312 C2.0740734 20.6473571 2.04116126 23.32356797 2 26 C-1.60329889 26.22573595 -5.20754699 26.42759125 -8.8125 26.625 C-9.83666016 26.68945312 -10.86082031 26.75390625 -11.91601562 26.8203125 C-12.89892578 26.871875 -13.88183594 26.9234375 -14.89453125 26.9765625 C-15.80050049 27.02893066 -16.70646973 27.08129883 -17.63989258 27.13525391 C-20 27 -20 27 -23 25 C-23.1875 21.875 -23.1875 21.875 -23 19 C-21.83984375 18.48953125 -21.83984375 18.48953125 -20.65625 17.96875 C-11.79686653 13.8460666 -4.48632 8.97264 0 0 Z " fill="#FDFAFD" transform="translate(90,326)"/>
<path d="M0 0 C3.34098676 2.22732451 3.90203779 3.24862913 5 7 C4.67 7.99 4.34 8.98 4 10 C2.5393715 7.35261084 2 6.10551666 2 3 C1.32453125 3.30035156 0.6490625 3.60070313 -0.046875 3.91015625 C-0.93890625 4.29042969 -1.8309375 4.67070313 -2.75 5.0625 C-3.63171875 5.44535156 -4.5134375 5.82820313 -5.421875 6.22265625 C-8 7 -8 7 -12 6 C-8.04 4.02 -4.08 2.04 0 0 Z " fill="#FFEFFA" transform="translate(213,50)"/>
<path d="M0 0 C2.64 1.98 5.28 3.96 8 6 C7.67 6.66 7.34 7.32 7 8 C2.61031544 8 1.23094261 5.87194899 -2 3 C-1 1 -1 1 0 0 Z " fill="#F9E8F3" transform="translate(149,190)"/>
<path d="M0 0 C0.99 0.33 1.98 0.66 3 1 C3.73046875 2.84765625 3.73046875 2.84765625 4.1875 5.0625 C4.34605469 5.79597656 4.50460938 6.52945312 4.66796875 7.28515625 C4.83232422 8.13400391 4.83232422 8.13400391 5 9 C4.34 9 3.68 9 3 9 C3 8.01 3 7.02 3 6 C2.01 6 1.02 6 0 6 C0 4.02 0 2.04 0 0 Z " fill="#F0F6F5" transform="translate(171,299)"/>
<path d="M0 0 C1.9375 0.6875 1.9375 0.6875 4 2 C4.75 4.625 4.75 4.625 5 7 C3.68 6.67 2.36 6.34 1 6 C0.67 4.02 0.34 2.04 0 0 Z " fill="#FFE9F6" transform="translate(212,225)"/>
<path d="M0 0 C0.66 0 1.32 0 2 0 C4.42857143 6.28571429 4.42857143 6.28571429 3 10 C0 3.375 0 3.375 0 0 Z " fill="#FEEEFB" transform="translate(227,171)"/>
<path d="M0 0 C0.99 0 1.98 0 3 0 C3 0.99 3 1.98 3 3 C1.68 3 0.36 3 -1 3 C-0.67 2.01 -0.34 1.02 0 0 Z " fill="#FFE6FC" transform="translate(161,154)"/>
</svg>
